<?xml version="1.0" encoding="utf-8" ?>
<svg baseProfile="full" height="608px" version="1.1" width="2048px" xmlns="http://www.w3.org/2000/svg" xmlns:ev="http://www.w3.org/2001/xml-events" xmlns:xlink="http://www.w3.org/1999/xlink"><defs /><path d="M 1969,486 L1968,487 L1967,487 L1967,562 L1968,563 L1981,563 L1983,561 L1983,549 L1984,548 L2015,548 L2017,550 L2017,551 L2018,552 L2018,553 L2020,555 L2020,556 L2021,557 L2021,558 L2023,560 L2023,561 L2025,563 L2040,563 L2041,562 L2041,560 L2040,559 L2040,558 L2039,557 L2039,556 L2037,554 L2037,553 L2035,551 L2035,550 L2034,549 L2034,548 L2031,545 L2031,544 L2030,543 L2030,541 L2041,530 L2041,505 L2040,504 L2040,503 L2024,487 L2022,487 L2021,486 Z" fill="black" /><path d="M 1902,486 L1901,487 L1899,487 L1885,501 L1885,502 L1884,503 L1883,503 L1882,504 L1882,545 L1899,562 L1900,562 L1901,563 L1938,563 L1940,561 L1941,561 L1943,559 L1943,558 L1944,557 L1945,557 L1945,556 L1956,545 L1956,543 L1957,542 L1957,507 L1956,506 L1956,504 L1939,487 L1937,487 L1936,486 Z" fill="black" /><path d="M 1791,486 L1790,487 L1789,487 L1788,488 L1788,502 L1790,504 L1821,504 L1822,505 L1822,562 L1823,563 L1838,563 L1839,562 L1839,505 L1840,504 L1870,504 L1872,502 L1872,488 L1870,486 Z" fill="black" /><path d="M 1724,486 L1723,487 L1722,487 L1721,488 L1720,488 L1710,498 L1710,499 L1709,500 L1708,500 L1707,501 L1707,502 L1704,505 L1704,545 L1705,546 L1705,547 L1722,564 L1760,564 L1761,563 L1762,563 L1771,554 L1771,553 L1772,552 L1773,552 L1773,551 L1779,545 L1779,532 L1778,531 L1777,531 L1776,530 L1765,530 L1764,531 L1763,531 L1763,532 L1762,533 L1762,540 L1760,542 L1760,543 L1759,544 L1758,544 L1755,547 L1728,547 L1726,545 L1726,544 L1725,544 L1721,540 L1721,511 L1723,509 L1723,508 L1724,507 L1725,507 L1729,503 L1755,503 L1762,510 L1762,517 L1763,518 L1763,519 L1764,520 L1777,520 L1779,518 L1779,506 L1778,505 L1778,504 L1763,489 L1763,488 L1762,488 L1761,487 L1759,487 L1758,486 Z" fill="black" /><path d="M 1640,486 L1639,487 L1637,487 L1620,504 L1620,505 L1619,506 L1619,543 L1620,544 L1620,545 L1621,546 L1621,547 L1622,548 L1623,548 L1624,549 L1624,550 L1625,551 L1626,551 L1628,553 L1628,554 L1629,554 L1631,556 L1631,557 L1632,557 L1638,563 L1693,563 L1694,562 L1694,548 L1693,547 L1645,547 L1637,539 L1637,535 L1638,534 L1684,534 L1686,532 L1686,519 L1685,518 L1638,518 L1637,517 L1637,510 L1643,504 L1644,504 L1645,503 L1692,503 L1694,501 L1694,488 L1692,486 Z" fill="black" /><path d="M 1537,486 L1536,487 L1535,487 L1535,561 L1537,563 L1548,563 L1549,562 L1550,562 L1551,561 L1551,549 L1552,548 L1591,548 L1609,530 L1609,529 L1610,528 L1610,506 L1609,505 L1609,504 L1592,487 L1590,487 L1589,486 Z" fill="black" /><path d="M 1468,486 L1467,487 L1465,487 L1451,501 L1451,502 L1450,503 L1450,517 L1451,518 L1451,519 L1464,532 L1465,532 L1466,533 L1503,533 L1507,537 L1507,538 L1508,539 L1508,541 L1507,542 L1507,543 L1506,544 L1505,544 L1502,547 L1453,547 L1453,562 L1454,563 L1509,563 L1511,561 L1512,561 L1513,560 L1513,559 L1514,558 L1515,558 L1516,557 L1516,556 L1517,555 L1518,555 L1519,554 L1519,553 L1520,552 L1521,552 L1522,551 L1522,550 L1525,547 L1525,531 L1524,530 L1524,529 L1513,518 L1512,518 L1511,517 L1473,517 L1472,516 L1471,516 L1468,513 L1468,510 L1467,509 L1468,508 L1468,507 L1471,504 L1472,504 L1473,503 L1518,503 L1519,502 L1520,502 L1520,487 L1519,487 L1518,486 Z" fill="black" /><path d="M 1371,486 L1370,487 L1368,487 L1366,489 L1366,490 L1365,491 L1365,561 L1367,563 L1380,563 L1381,562 L1381,504 L1382,503 L1415,503 L1424,512 L1424,562 L1425,563 L1439,563 L1440,562 L1440,506 L1428,494 L1428,493 L1427,492 L1426,492 L1425,491 L1425,490 L1423,488 L1422,488 L1421,487 L1420,487 L1419,486 Z" fill="black" /><path d="M 1340,486 L1339,487 L1338,487 L1338,562 L1339,563 L1354,563 L1355,562 L1355,561 L1356,560 L1356,489 L1355,488 L1355,487 L1354,487 L1353,486 Z" fill="black" /><path d="M 1212,486 L1210,488 L1210,562 L1211,562 L1212,563 L1225,563 L1227,561 L1227,549 L1228,548 L1259,548 L1260,549 L1260,550 L1261,551 L1261,552 L1263,554 L1263,555 L1264,556 L1264,557 L1266,559 L1266,560 L1269,563 L1284,563 L1284,562 L1285,561 L1285,560 L1283,558 L1283,557 L1282,556 L1282,555 L1280,553 L1280,552 L1279,551 L1279,550 L1277,548 L1277,547 L1275,545 L1275,544 L1274,543 L1274,541 L1284,531 L1284,530 L1285,529 L1285,505 L1284,504 L1284,503 L1269,488 L1268,488 L1267,487 L1266,487 L1265,486 Z" fill="black" /><path d="M 1146,486 L1145,487 L1143,487 L1126,504 L1126,505 L1125,506 L1125,561 L1127,563 L1140,563 L1142,561 L1142,546 L1143,545 L1183,545 L1184,546 L1184,561 L1186,563 L1199,563 L1200,562 L1200,561 L1201,560 L1201,508 L1200,507 L1200,505 L1199,504 L1199,503 L1183,487 L1181,487 L1180,486 Z" fill="black" /><path d="M 915,486 L913,488 L913,561 L915,563 L970,563 L972,561 L973,561 L987,547 L987,546 L988,545 L988,503 L972,487 L970,487 L969,486 Z" fill="black" /><path d="M 849,486 L848,487 L846,487 L845,488 L845,489 L844,490 L843,490 L842,491 L842,492 L841,493 L840,493 L839,494 L839,495 L837,497 L836,497 L836,498 L834,500 L833,500 L833,501 L831,503 L830,503 L830,504 L829,505 L829,545 L846,562 L847,562 L848,563 L902,563 L903,562 L903,548 L902,547 L854,547 L847,540 L847,539 L846,538 L846,535 L847,534 L894,534 L895,533 L895,519 L894,518 L847,518 L846,517 L846,511 L847,510 L847,509 L848,508 L849,508 L854,503 L901,503 L902,502 L903,502 L903,487 L902,487 L901,486 Z" fill="black" /><path d="M 737,486 L735,488 L735,502 L737,504 L767,504 L768,505 L768,560 L769,561 L769,562 L770,563 L785,563 L786,562 L786,505 L787,504 L817,504 L819,502 L819,488 L817,486 Z" fill="black" /><path d="M 668,486 L667,487 L666,487 L665,488 L664,488 L663,489 L663,490 L662,491 L661,491 L660,492 L660,493 L659,494 L658,494 L657,495 L657,496 L656,497 L655,497 L654,498 L654,499 L653,500 L652,500 L651,501 L651,504 L650,505 L650,515 L651,516 L651,518 L652,519 L652,520 L653,520 L654,521 L654,522 L655,523 L656,523 L657,524 L657,525 L658,526 L659,526 L665,532 L666,532 L667,533 L704,533 L707,536 L707,537 L708,538 L708,542 L703,547 L654,547 L654,562 L655,563 L709,563 L710,562 L711,562 L725,548 L725,545 L726,544 L726,533 L725,532 L725,530 L724,529 L724,528 L723,528 L721,526 L721,525 L720,525 L718,523 L718,522 L717,522 L712,517 L674,517 L673,516 L672,516 L668,512 L668,508 L669,507 L669,506 L670,505 L671,505 L673,503 L719,503 L721,501 L721,487 L720,487 L719,486 Z" fill="black" /><path d="M 567,486 L566,487 L565,487 L565,545 L566,546 L566,547 L567,548 L568,548 L575,555 L576,555 L582,561 L583,561 L585,563 L620,563 L622,561 L623,561 L626,558 L627,558 L634,551 L635,551 L640,546 L640,545 L641,544 L641,488 L639,486 L627,486 L626,487 L625,487 L625,536 L624,537 L624,538 L621,541 L620,541 L619,542 L619,543 L618,544 L617,544 L614,547 L591,547 L585,541 L584,541 L583,540 L583,539 L581,537 L581,488 L579,486 Z" fill="black" /><path d="M 482,486 L480,488 L480,562 L481,563 L495,563 L496,562 L496,549 L497,548 L528,548 L530,550 L530,551 L532,553 L532,554 L534,556 L534,557 L535,558 L535,559 L537,561 L537,562 L538,563 L553,563 L555,561 L554,560 L554,559 L553,558 L553,557 L551,555 L551,554 L549,552 L549,551 L548,550 L548,549 L545,546 L545,544 L543,542 L554,531 L554,530 L555,529 L555,505 L551,501 L551,500 L550,500 L548,498 L548,497 L547,497 L545,495 L545,494 L544,494 L537,487 L536,487 L535,486 Z" fill="black" /><path d="M 389,486 L388,487 L387,487 L387,503 L388,504 L419,504 L420,505 L420,562 L421,563 L436,563 L437,562 L437,505 L438,504 L468,504 L469,503 L470,503 L470,487 L469,487 L468,486 Z" fill="black" /><path d="M 261,486 L260,487 L259,487 L259,562 L260,563 L274,563 L275,562 L275,549 L276,548 L307,548 L309,550 L309,551 L311,553 L311,554 L312,555 L312,556 L314,558 L314,559 L315,560 L315,561 L317,563 L332,563 L333,562 L333,559 L332,558 L332,557 L330,555 L330,554 L328,552 L328,551 L326,549 L326,548 L325,547 L325,546 L322,543 L322,541 L324,539 L325,539 L326,538 L326,537 L327,536 L328,536 L329,535 L329,534 L330,533 L331,533 L332,532 L332,531 L334,529 L334,506 L333,505 L333,504 L331,502 L331,501 L330,501 L316,487 L314,487 L313,486 Z" fill="black" /><path d="M 175,486 L174,487 L173,487 L173,545 L180,552 L181,552 L187,558 L188,558 L189,559 L189,560 L190,560 L192,562 L193,562 L194,563 L228,563 L229,562 L230,562 L232,560 L233,560 L239,554 L240,554 L246,548 L247,548 L247,547 L249,545 L249,487 L248,487 L247,486 L235,486 L234,487 L233,487 L233,537 L223,547 L199,547 L190,538 L190,537 L189,536 L189,487 L188,487 L187,486 Z" fill="black" /><path d="M 109,486 L108,487 L106,487 L105,488 L104,488 L104,489 L102,491 L101,491 L101,492 L89,504 L89,505 L88,506 L88,544 L98,554 L98,555 L99,555 L101,557 L101,558 L104,561 L105,561 L107,563 L144,563 L145,562 L146,562 L162,546 L162,545 L163,544 L163,505 L162,504 L162,503 L146,487 L144,487 L143,486 Z" fill="black" /><path d="M 6,480 L5,481 L4,481 L4,482 L3,483 L3,517 L4,518 L4,520 L16,532 L16,533 L25,542 L26,542 L27,543 L31,543 L32,544 L32,561 L34,563 L48,563 L49,562 L49,561 L50,560 L50,544 L51,543 L55,543 L56,542 L57,542 L64,535 L64,534 L66,532 L67,532 L67,531 L77,521 L77,520 L78,519 L78,481 L77,481 L76,480 L65,480 L64,481 L63,481 L63,482 L62,483 L62,514 L50,526 L49,526 L48,527 L34,527 L33,526 L32,526 L20,514 L20,482 L19,481 L18,481 L17,480 Z" fill="black" /><path d="M 1060,479 L1058,481 L1057,481 L1056,482 L1056,483 L1055,484 L1054,484 L1053,485 L1053,486 L1052,487 L1051,487 L1043,495 L1043,496 L1041,498 L1041,545 L1043,547 L1043,548 L1059,564 L1097,564 L1098,563 L1099,563 L1105,557 L1105,556 L1106,555 L1107,555 L1107,554 L1115,546 L1115,545 L1116,544 L1116,532 L1115,531 L1114,531 L1113,530 L1102,530 L1101,531 L1100,531 L1100,539 L1097,542 L1097,543 L1096,544 L1095,544 L1092,547 L1065,547 L1063,545 L1063,544 L1062,544 L1059,541 L1059,540 L1058,539 L1058,504 L1059,503 L1059,502 L1063,498 L1064,498 L1067,495 L1091,495 L1097,501 L1098,501 L1099,502 L1099,503 L1100,504 L1100,512 L1101,513 L1114,513 L1116,511 L1116,499 L1115,498 L1115,497 L1110,492 L1110,491 L1109,491 L1107,489 L1107,488 L1106,488 L1104,486 L1104,485 L1103,484 L1102,484 L1101,483 L1101,482 L1100,481 L1099,481 L1097,479 Z" fill="black" /><path d="M 1929,371 L1928,372 L1907,372 L1906,373 L1848,373 L1847,374 L1839,374 L1838,373 L1798,373 L1798,374 L1806,382 L1807,382 L1811,386 L1812,386 L1814,388 L1815,388 L1818,391 L1819,391 L1821,393 L1822,393 L1823,394 L1824,394 L1825,395 L1826,395 L1828,397 L1829,397 L1830,398 L1831,398 L1832,399 L1833,399 L1834,400 L1836,400 L1837,401 L1839,401 L1840,402 L1842,402 L1843,403 L1845,403 L1846,404 L1850,404 L1851,405 L1854,405 L1855,406 L1860,406 L1861,407 L1877,407 L1878,406 L1885,406 L1886,405 L1889,405 L1890,404 L1894,404 L1895,403 L1898,403 L1899,402 L1900,402 L1901,401 L1904,401 L1905,400 L1907,400 L1909,398 L1911,398 L1912,397 L1913,397 L1914,396 L1915,396 L1916,395 L1917,395 L1918,394 L1920,394 L1922,392 L1923,392 L1924,391 L1925,391 L1928,388 L1930,388 L1933,385 L1934,385 L1937,382 L1938,382 L1942,378 L1943,378 L1943,377 L1944,376 L1945,376 L1946,375 L1946,374 L1949,371 Z" fill="black" /><path d="M 1579,313 L1579,319 L1578,320 L1578,325 L1577,326 L1577,332 L1576,333 L1576,335 L1575,336 L1575,338 L1574,339 L1574,342 L1573,343 L1573,345 L1572,346 L1572,347 L1571,348 L1571,350 L1570,351 L1570,352 L1569,353 L1569,354 L1568,355 L1568,357 L1566,359 L1566,360 L1565,361 L1565,362 L1562,365 L1562,366 L1561,367 L1561,368 L1558,371 L1558,372 L1545,385 L1544,385 L1542,387 L1541,387 L1538,390 L1537,390 L1536,391 L1535,391 L1533,393 L1531,393 L1529,395 L1528,395 L1527,396 L1525,396 L1524,397 L1523,397 L1522,398 L1521,398 L1520,399 L1517,399 L1516,400 L1515,400 L1516,401 L1550,401 L1551,400 L1564,400 L1565,399 L1572,399 L1573,398 L1578,398 L1579,397 L1582,397 L1584,395 L1585,395 L1586,394 L1587,394 L1593,388 L1594,388 L1611,371 L1611,370 L1612,369 L1609,369 L1608,368 L1589,368 L1588,367 L1585,367 L1584,366 L1583,366 L1582,365 L1582,334 L1581,333 L1581,321 L1580,320 L1580,315 L1579,314 Z" fill="black" /><path d="M 1600,301 L1600,312 L1601,313 L1601,326 L1602,327 L1602,351 L1603,351 L1604,352 L1610,352 L1611,353 L1619,353 L1620,354 L1632,354 L1633,355 L1640,355 L1641,356 L1651,356 L1652,357 L1669,357 L1670,358 L1681,358 L1682,359 L1697,359 L1698,360 L1723,360 L1724,361 L1745,361 L1746,362 L1793,362 L1794,363 L1814,363 L1815,362 L1863,362 L1864,361 L1886,361 L1887,360 L1918,360 L1919,359 L1934,359 L1935,358 L1946,358 L1947,357 L1962,357 L1963,356 L1971,356 L1972,355 L1978,355 L1979,354 L1986,354 L1987,353 L1993,353 L1994,352 L1998,352 L1999,351 L2003,351 L2004,350 L2008,350 L2009,349 L2011,349 L2012,348 L2013,348 L2014,347 L2017,347 L2018,346 L2019,346 L2020,345 L2021,345 L2022,344 L2023,344 L2024,343 L2025,343 L2027,341 L2028,341 L2031,338 L2031,337 L2033,335 L2033,334 L2034,333 L2034,324 L2033,323 L2033,321 L2032,320 L2032,318 L2031,317 L2031,316 L2030,315 L2030,314 L2029,313 L2029,312 L2028,311 L2027,311 L2023,315 L2021,315 L2019,317 L2017,317 L2016,318 L2014,318 L2013,319 L2011,319 L2010,320 L2008,320 L2007,321 L2002,321 L2001,322 L1999,322 L1998,323 L1995,323 L1994,324 L1986,324 L1985,325 L1980,325 L1979,326 L1974,326 L1973,327 L1962,327 L1961,328 L1954,328 L1953,329 L1945,329 L1944,330 L1925,330 L1924,331 L1907,331 L1906,332 L1841,332 L1840,331 L1813,331 L1812,330 L1785,330 L1784,329 L1770,329 L1769,328 L1754,328 L1753,327 L1729,327 L1728,326 L1723,326 L1722,325 L1720,325 L1719,324 L1716,324 L1715,323 L1714,323 L1713,322 L1712,322 L1711,321 L1709,321 L1706,318 L1705,318 L1697,310 L1697,309 L1695,307 L1695,306 L1693,304 L1693,303 L1646,303 L1645,302 L1610,302 L1609,301 Z" fill="black" /><path d="M 1501,189 L1501,192 L1502,192 L1503,193 L1507,193 L1508,194 L1510,194 L1511,195 L1512,195 L1513,196 L1514,196 L1515,197 L1517,197 L1520,200 L1521,200 L1523,202 L1524,202 L1528,206 L1529,206 L1530,207 L1530,208 L1534,212 L1534,213 L1537,216 L1537,217 L1539,219 L1539,220 L1540,221 L1540,222 L1541,223 L1541,224 L1542,225 L1542,226 L1543,227 L1543,229 L1544,230 L1544,231 L1545,232 L1545,233 L1546,234 L1546,237 L1547,238 L1547,239 L1548,240 L1548,242 L1549,243 L1549,248 L1550,249 L1550,252 L1551,253 L1551,257 L1552,258 L1552,270 L1553,271 L1553,298 L1552,299 L1552,311 L1551,312 L1551,316 L1550,317 L1550,321 L1549,322 L1549,328 L1548,329 L1548,331 L1547,332 L1547,335 L1546,336 L1546,339 L1545,340 L1545,342 L1544,343 L1544,345 L1543,346 L1543,348 L1542,349 L1542,350 L1541,351 L1541,352 L1540,353 L1540,355 L1539,356 L1539,357 L1538,358 L1538,359 L1537,360 L1537,361 L1536,362 L1536,363 L1534,365 L1534,366 L1531,369 L1531,370 L1529,372 L1529,373 L1521,381 L1520,381 L1517,384 L1516,384 L1513,387 L1511,387 L1510,388 L1509,388 L1507,390 L1505,390 L1504,391 L1502,391 L1501,392 L1501,395 L1507,395 L1508,394 L1514,394 L1515,393 L1517,393 L1518,392 L1520,392 L1521,391 L1524,391 L1526,389 L1527,389 L1528,388 L1530,388 L1532,386 L1533,386 L1534,385 L1535,385 L1537,383 L1538,383 L1543,378 L1544,378 L1544,377 L1546,375 L1547,375 L1547,374 L1550,371 L1550,370 L1554,366 L1554,365 L1556,363 L1556,362 L1557,361 L1557,360 L1558,359 L1558,358 L1559,357 L1559,356 L1560,355 L1560,354 L1561,353 L1561,352 L1562,351 L1562,350 L1563,349 L1563,346 L1564,345 L1564,344 L1565,343 L1565,342 L1566,341 L1566,337 L1567,336 L1567,334 L1568,333 L1568,331 L1569,330 L1569,324 L1570,323 L1570,320 L1571,319 L1571,315 L1572,314 L1572,304 L1573,303 L1573,280 L1572,279 L1572,269 L1571,268 L1571,264 L1570,263 L1570,260 L1569,259 L1569,254 L1568,253 L1568,251 L1567,250 L1567,249 L1566,248 L1566,244 L1565,243 L1565,242 L1564,241 L1564,240 L1563,239 L1563,237 L1562,236 L1562,234 L1560,232 L1560,230 L1559,229 L1559,228 L1557,226 L1557,225 L1556,224 L1556,223 L1555,222 L1555,221 L1553,219 L1553,218 L1550,215 L1550,214 L1537,201 L1536,201 L1534,199 L1533,199 L1532,198 L1531,198 L1529,196 L1528,196 L1527,195 L1525,195 L1524,194 L1523,194 L1522,193 L1521,193 L1520,192 L1516,192 L1515,191 L1512,191 L1511,190 L1502,190 Z" fill="black" /><path d="M 796,183 L795,184 L793,184 L791,186 L789,186 L779,196 L779,197 L778,198 L777,198 L776,199 L776,200 L775,201 L774,201 L773,202 L773,203 L771,205 L770,205 L770,206 L768,208 L767,208 L767,209 L745,231 L745,232 L743,234 L743,235 L742,236 L742,342 L743,343 L743,344 L745,346 L745,347 L765,367 L765,368 L789,392 L790,392 L791,393 L792,393 L793,394 L796,394 L797,395 L894,395 L895,394 L897,394 L898,393 L899,393 L901,391 L902,391 L922,371 L922,370 L923,369 L924,369 L925,368 L925,367 L926,366 L927,366 L928,365 L928,364 L929,363 L930,363 L931,362 L931,361 L933,359 L934,359 L934,358 L946,346 L946,345 L947,344 L947,342 L948,341 L948,338 L949,337 L948,336 L948,242 L949,241 L948,240 L948,237 L947,236 L947,234 L945,232 L945,231 L924,210 L924,209 L923,209 L922,208 L922,207 L901,186 L900,186 L899,185 L898,185 L897,184 L895,184 L894,183 Z" fill="black" /><path d="M 488,183 L484,187 L484,227 L488,231 L574,231 L575,232 L575,389 L576,390 L576,391 L577,392 L577,393 L578,394 L579,394 L580,395 L619,395 L620,394 L621,394 L622,393 L622,392 L623,391 L623,390 L624,389 L624,232 L625,231 L710,231 L714,227 L714,225 L715,224 L715,190 L714,189 L714,187 L710,183 Z" fill="black" /><path d="M 251,183 L247,187 L247,188 L246,189 L246,341 L247,342 L247,344 L248,345 L248,347 L250,349 L250,350 L251,350 L258,357 L259,357 L265,363 L266,363 L272,369 L273,369 L274,370 L274,371 L275,371 L281,377 L282,377 L287,382 L288,382 L294,388 L295,388 L296,389 L296,390 L297,390 L298,391 L299,391 L302,394 L305,394 L306,395 L397,395 L398,394 L400,394 L401,393 L402,393 L404,391 L405,391 L408,388 L409,388 L415,382 L416,382 L422,376 L423,376 L430,369 L431,369 L437,363 L438,363 L445,356 L446,356 L454,348 L454,347 L455,346 L455,345 L456,344 L456,341 L457,340 L457,189 L456,188 L456,187 L452,183 L417,183 L416,184 L415,184 L413,186 L413,187 L412,188 L412,323 L411,324 L411,325 L393,343 L392,343 L386,349 L383,349 L382,350 L320,350 L319,349 L317,349 L315,347 L314,347 L297,330 L296,330 L294,328 L294,327 L291,324 L291,188 L290,187 L290,186 L288,184 L287,184 L286,183 Z" fill="black" /><path d="M 1981,173 L1980,174 L1980,178 L1981,179 L1981,181 L1982,182 L1982,184 L1983,185 L1983,187 L1984,188 L1984,189 L1985,190 L1985,191 L1986,192 L1986,193 L1987,194 L1987,195 L1988,196 L1988,197 L1989,198 L1989,199 L1990,200 L1990,201 L1991,202 L1991,203 L1992,204 L1992,205 L1993,206 L1993,207 L1994,208 L1994,209 L1995,210 L1995,211 L1997,213 L1997,214 L1999,216 L1999,217 L2004,222 L2006,222 L2006,221 L2007,220 L2007,219 L2008,218 L2008,215 L2007,214 L2007,211 L2006,210 L2006,207 L2005,206 L2005,204 L2004,203 L2004,202 L2003,201 L2003,199 L2002,198 L2002,197 L2001,196 L2001,195 L2000,194 L2000,193 L1999,192 L1999,191 L1998,190 L1998,189 L1996,187 L1996,186 L1994,184 L1994,183 L1992,181 L1992,180 L1986,174 L1985,174 L1984,173 Z" fill="black" /><path d="M 1267,167 L1266,168 L1265,168 L1264,169 L1263,169 L1261,171 L1260,171 L1260,172 L1259,173 L1258,173 L1257,174 L1257,175 L1256,176 L1255,176 L1254,177 L1254,178 L1252,180 L1251,180 L1251,181 L1249,183 L1248,183 L1248,184 L1246,186 L1245,186 L1244,187 L1244,188 L1243,189 L1242,189 L1241,190 L1241,191 L1240,192 L1239,192 L1238,193 L1238,194 L1237,195 L1236,195 L1235,196 L1235,197 L1234,198 L1233,198 L1232,199 L1232,200 L1230,202 L1229,202 L1229,203 L1227,205 L1226,205 L1226,206 L1224,208 L1223,208 L1222,209 L1222,210 L1221,211 L1220,211 L1219,212 L1219,213 L1216,216 L1216,217 L1214,219 L1214,220 L1213,221 L1213,391 L1216,394 L1217,394 L1218,395 L1256,395 L1257,394 L1258,394 L1261,391 L1261,338 L1262,337 L1386,337 L1387,336 L1388,336 L1390,334 L1390,295 L1388,293 L1387,293 L1386,292 L1262,292 L1261,291 L1261,234 L1262,233 L1262,232 L1276,218 L1277,218 L1277,217 L1278,216 L1279,216 L1283,212 L1415,212 L1416,211 L1417,211 L1419,209 L1419,208 L1420,207 L1420,172 L1419,171 L1419,170 L1416,167 Z" fill="black" /><path d="M 980,167 L979,168 L978,168 L977,169 L977,170 L976,171 L976,391 L979,394 L980,394 L981,395 L1016,395 L1017,394 L1018,394 L1020,392 L1020,391 L1021,390 L1021,346 L1022,345 L1100,345 L1101,346 L1101,347 L1103,349 L1103,350 L1105,352 L1105,353 L1106,354 L1106,355 L1108,357 L1108,358 L1109,359 L1109,360 L1111,362 L1111,363 L1113,365 L1113,366 L1114,367 L1114,368 L1116,370 L1116,371 L1118,373 L1118,374 L1119,375 L1119,376 L1121,378 L1121,379 L1122,380 L1122,381 L1124,383 L1124,384 L1125,385 L1125,386 L1128,389 L1128,391 L1131,394 L1133,394 L1134,395 L1172,395 L1173,394 L1174,394 L1176,392 L1176,390 L1177,389 L1176,388 L1176,386 L1174,384 L1174,383 L1173,382 L1173,381 L1171,379 L1171,378 L1169,376 L1169,375 L1167,373 L1167,372 L1165,370 L1165,369 L1164,368 L1164,367 L1162,365 L1162,364 L1161,363 L1161,362 L1158,359 L1158,358 L1157,357 L1157,356 L1155,354 L1155,353 L1153,351 L1153,350 L1151,348 L1151,347 L1150,346 L1150,345 L1148,343 L1148,342 L1146,340 L1146,339 L1145,338 L1145,337 L1144,336 L1144,335 L1145,334 L1145,333 L1146,332 L1147,332 L1158,321 L1158,320 L1159,319 L1160,319 L1161,318 L1161,317 L1162,316 L1163,316 L1164,315 L1164,314 L1165,313 L1166,313 L1167,312 L1167,311 L1168,310 L1169,310 L1180,299 L1180,298 L1181,297 L1182,297 L1182,296 L1183,295 L1183,294 L1185,292 L1185,290 L1186,289 L1186,221 L1185,220 L1185,219 L1184,218 L1184,217 L1183,216 L1183,215 L1180,212 L1180,211 L1177,208 L1176,208 L1141,173 L1140,173 L1139,172 L1139,171 L1138,170 L1137,170 L1135,168 L1133,168 L1132,167 Z" fill="black" /><path d="M 65,167 L64,168 L63,168 L62,169 L61,169 L59,171 L58,171 L54,175 L54,176 L53,177 L52,177 L51,178 L51,179 L50,180 L49,180 L49,181 L16,214 L16,215 L14,217 L14,218 L13,219 L13,223 L12,224 L12,389 L13,390 L13,392 L15,394 L16,394 L17,395 L52,395 L53,394 L54,394 L55,393 L55,392 L56,391 L56,390 L57,389 L57,321 L58,320 L174,320 L175,321 L175,391 L178,394 L179,394 L180,395 L214,395 L215,394 L216,394 L219,391 L219,221 L218,220 L218,218 L216,216 L216,215 L200,199 L200,198 L172,170 L171,170 L170,169 L169,169 L168,168 L167,168 L166,167 Z" fill="black" /><path d="M 1766,153 L1768,155 L1769,155 L1772,158 L1773,158 L1776,161 L1777,161 L1781,165 L1782,165 L1788,171 L1788,172 L1792,176 L1792,177 L1794,179 L1794,180 L1796,182 L1796,183 L1797,184 L1797,186 L1798,187 L1798,189 L1799,190 L1799,198 L1798,199 L1798,201 L1797,202 L1797,204 L1798,204 L1801,201 L1801,200 L1803,198 L1803,197 L1804,196 L1804,194 L1805,193 L1805,187 L1804,186 L1804,185 L1803,184 L1803,183 L1802,182 L1802,181 L1801,180 L1801,179 L1798,176 L1798,175 L1794,171 L1793,171 L1789,167 L1788,167 L1785,164 L1784,164 L1782,162 L1781,162 L1779,160 L1778,160 L1776,158 L1775,158 L1774,157 L1773,157 L1772,156 L1771,156 L1769,154 L1767,154 Z" fill="black" /><path d="M 1741,150 L1740,151 L1736,151 L1735,152 L1734,152 L1731,155 L1731,156 L1729,158 L1729,160 L1728,161 L1728,170 L1729,171 L1729,173 L1730,174 L1730,175 L1731,176 L1731,178 L1732,179 L1732,180 L1734,182 L1734,183 L1735,184 L1735,185 L1738,188 L1738,189 L1741,192 L1741,193 L1742,193 L1744,195 L1744,196 L1745,196 L1748,199 L1749,199 L1752,202 L1753,202 L1754,203 L1755,203 L1757,205 L1758,205 L1759,206 L1762,206 L1763,207 L1764,207 L1765,208 L1766,208 L1767,209 L1773,209 L1774,210 L1782,210 L1783,209 L1786,209 L1787,208 L1788,208 L1790,206 L1791,206 L1792,205 L1792,204 L1794,202 L1794,201 L1795,200 L1795,189 L1794,188 L1794,186 L1793,185 L1793,184 L1792,183 L1792,181 L1790,179 L1790,178 L1788,176 L1788,175 L1777,164 L1776,164 L1773,161 L1772,161 L1769,158 L1768,158 L1767,157 L1766,157 L1764,155 L1763,155 L1762,154 L1760,154 L1759,153 L1758,153 L1757,152 L1755,152 L1754,151 L1748,151 L1747,150 Z" fill="black" /><path d="M 1684,150 L1685,150 L1686,151 L1687,151 L1688,152 L1689,152 L1690,153 L1691,153 L1692,154 L1693,154 L1694,155 L1695,155 L1696,156 L1697,156 L1699,158 L1700,158 L1701,159 L1702,159 L1705,162 L1706,162 L1709,165 L1710,165 L1718,173 L1718,174 L1719,175 L1719,176 L1721,178 L1721,180 L1722,181 L1722,188 L1721,189 L1721,191 L1719,193 L1719,194 L1711,202 L1710,202 L1713,202 L1714,201 L1715,201 L1716,200 L1717,200 L1718,199 L1719,199 L1723,195 L1723,194 L1724,193 L1724,192 L1725,191 L1725,190 L1726,189 L1726,181 L1725,180 L1725,178 L1724,177 L1724,176 L1723,175 L1723,174 L1722,173 L1722,172 L1720,170 L1720,169 L1712,161 L1711,161 L1709,159 L1708,159 L1707,158 L1706,158 L1705,157 L1704,157 L1702,155 L1701,155 L1700,154 L1698,154 L1697,153 L1695,153 L1694,152 L1692,152 L1691,151 L1687,151 L1686,150 Z" fill="black" /><path d="M 1666,150 L1665,151 L1661,151 L1660,152 L1659,152 L1657,154 L1656,154 L1652,158 L1652,159 L1650,161 L1650,162 L1649,163 L1649,169 L1650,170 L1650,172 L1651,173 L1651,174 L1652,175 L1652,176 L1653,177 L1653,178 L1654,179 L1654,180 L1657,183 L1657,184 L1658,184 L1659,185 L1659,186 L1663,190 L1664,190 L1665,191 L1665,192 L1666,192 L1668,194 L1669,194 L1671,196 L1672,196 L1673,197 L1674,197 L1675,198 L1676,198 L1677,199 L1679,199 L1680,200 L1683,200 L1684,201 L1687,201 L1688,202 L1702,202 L1703,201 L1705,201 L1706,200 L1708,200 L1709,199 L1710,199 L1712,197 L1713,197 L1714,196 L1714,195 L1716,193 L1716,192 L1717,191 L1717,182 L1716,181 L1716,179 L1715,178 L1715,177 L1714,176 L1714,175 L1711,172 L1711,171 L1707,167 L1706,167 L1703,164 L1702,164 L1699,161 L1698,161 L1697,160 L1696,160 L1694,158 L1693,158 L1692,157 L1691,157 L1690,156 L1689,156 L1688,155 L1687,155 L1686,154 L1684,154 L1683,153 L1682,153 L1681,152 L1679,152 L1678,151 L1672,151 L1671,150 Z" fill="black" /><path d="M 1902,149 L1901,150 L1880,150 L1879,151 L1852,151 L1851,152 L1839,152 L1838,153 L1835,153 L1834,154 L1832,154 L1830,156 L1830,158 L1829,159 L1829,163 L1830,164 L1830,166 L1831,167 L1831,169 L1832,170 L1832,171 L1833,172 L1833,173 L1835,175 L1835,177 L1837,179 L1837,180 L1838,181 L1838,182 L1839,183 L1839,184 L1841,186 L1841,187 L1842,188 L1842,189 L1844,191 L1844,192 L1845,193 L1845,194 L1847,196 L1847,197 L1849,199 L1849,200 L1851,202 L1851,203 L1853,205 L1853,206 L1854,207 L1854,208 L1860,214 L1860,215 L1861,215 L1865,219 L1866,219 L1867,220 L1868,220 L1869,221 L1870,221 L1871,222 L1873,222 L1874,223 L1878,223 L1879,224 L1916,224 L1917,225 L1949,225 L1950,226 L1964,226 L1965,227 L1977,227 L1978,228 L1982,228 L1983,227 L1984,227 L1985,226 L1986,226 L1987,225 L1987,224 L1988,223 L1988,221 L1989,220 L1989,216 L1988,215 L1988,211 L1987,210 L1987,206 L1986,205 L1986,203 L1985,202 L1985,200 L1984,199 L1984,196 L1983,195 L1983,193 L1982,192 L1982,191 L1981,190 L1981,187 L1980,186 L1980,184 L1979,183 L1979,182 L1978,181 L1978,179 L1977,178 L1977,176 L1975,174 L1975,173 L1974,172 L1974,171 L1967,164 L1966,164 L1965,163 L1964,163 L1963,162 L1962,162 L1961,161 L1959,161 L1958,160 L1956,160 L1955,159 L1953,159 L1952,158 L1950,158 L1949,157 L1945,157 L1944,156 L1942,156 L1941,155 L1938,155 L1937,154 L1933,154 L1932,153 L1929,153 L1928,152 L1924,152 L1923,151 L1918,151 L1917,150 L1914,150 L1913,149 Z" fill="black" /><path d="M 1608,106 L1607,107 L1575,107 L1574,108 L1546,108 L1545,109 L1516,109 L1515,110 L1482,110 L1481,111 L1479,111 L1517,111 L1518,112 L1544,112 L1545,113 L1556,113 L1557,114 L1569,114 L1570,115 L1584,115 L1585,116 L1592,116 L1593,117 L1601,117 L1602,118 L1613,118 L1614,119 L1620,119 L1621,120 L1627,120 L1628,121 L1638,121 L1639,122 L1643,122 L1644,123 L1649,123 L1650,124 L1659,124 L1660,125 L1664,125 L1665,126 L1670,126 L1671,127 L1678,127 L1679,128 L1684,128 L1685,129 L1688,129 L1689,130 L1694,130 L1695,131 L1701,131 L1702,132 L1705,132 L1706,133 L1711,133 L1712,134 L1718,134 L1719,135 L1723,135 L1724,136 L1728,136 L1729,137 L1737,137 L1738,138 L1742,138 L1743,139 L1746,139 L1747,140 L1752,140 L1753,141 L1754,141 L1755,142 L1757,142 L1758,143 L1761,143 L1763,145 L1764,145 L1765,146 L1767,146 L1769,148 L1770,148 L1771,149 L1772,149 L1773,150 L1774,150 L1776,152 L1777,152 L1778,153 L1779,153 L1782,156 L1783,156 L1785,158 L1786,158 L1787,159 L1788,159 L1791,162 L1792,162 L1795,165 L1796,165 L1799,168 L1800,168 L1803,171 L1804,171 L1810,177 L1811,177 L1826,192 L1826,193 L1827,193 L1828,194 L1828,195 L1835,202 L1835,203 L1839,207 L1839,208 L1842,211 L1842,212 L1845,215 L1845,216 L1847,218 L1847,219 L1849,221 L1849,222 L1851,224 L1851,223 L1850,222 L1850,221 L1849,220 L1849,219 L1848,218 L1848,217 L1847,216 L1847,215 L1846,214 L1846,213 L1845,212 L1845,211 L1844,210 L1844,209 L1843,208 L1843,207 L1842,206 L1842,205 L1841,204 L1841,203 L1839,201 L1839,199 L1838,198 L1838,197 L1836,195 L1836,193 L1835,192 L1835,191 L1833,189 L1833,187 L1831,185 L1831,184 L1830,183 L1830,181 L1828,179 L1828,178 L1827,177 L1827,176 L1826,175 L1826,174 L1825,173 L1825,172 L1824,171 L1824,170 L1823,169 L1823,168 L1821,166 L1821,165 L1820,164 L1820,163 L1819,162 L1819,161 L1817,159 L1817,157 L1816,156 L1816,152 L1817,151 L1817,150 L1818,149 L1820,149 L1821,148 L1823,148 L1824,147 L1829,147 L1830,146 L1844,146 L1845,145 L1856,145 L1857,144 L1889,144 L1890,143 L1907,143 L1908,144 L1912,144 L1913,145 L1917,145 L1918,146 L1925,146 L1926,147 L1929,147 L1930,148 L1933,148 L1934,149 L1938,149 L1939,150 L1942,150 L1943,151 L1945,151 L1946,152 L1948,152 L1949,153 L1951,153 L1952,154 L1954,154 L1955,155 L1957,155 L1958,156 L1960,156 L1961,157 L1963,157 L1964,158 L1965,158 L1966,159 L1966,158 L1965,157 L1964,157 L1963,156 L1962,156 L1960,154 L1958,154 L1956,152 L1955,152 L1954,151 L1952,151 L1951,150 L1950,150 L1948,148 L1946,148 L1945,147 L1944,147 L1943,146 L1942,146 L1941,145 L1938,145 L1937,144 L1936,144 L1935,143 L1934,143 L1933,142 L1930,142 L1929,141 L1927,141 L1926,140 L1924,140 L1923,139 L1920,139 L1919,138 L1916,138 L1915,137 L1913,137 L1912,136 L1909,136 L1908,135 L1904,135 L1903,134 L1901,134 L1900,133 L1896,133 L1895,132 L1891,132 L1890,131 L1887,131 L1886,130 L1882,130 L1881,129 L1876,129 L1875,128 L1871,128 L1870,127 L1867,127 L1866,126 L1859,126 L1858,125 L1855,125 L1854,124 L1850,124 L1849,123 L1840,123 L1839,122 L1835,122 L1834,121 L1829,121 L1828,120 L1819,120 L1818,119 L1813,119 L1812,118 L1806,118 L1805,117 L1796,117 L1795,116 L1788,116 L1787,115 L1780,115 L1779,114 L1771,114 L1770,113 L1759,113 L1758,112 L1751,112 L1750,111 L1741,111 L1740,110 L1728,110 L1727,109 L1719,109 L1718,108 L1707,108 L1706,107 L1682,107 L1681,106 Z" fill="black" /><path d="M 1138,70 L1137,71 L1136,71 L1135,72 L1134,72 L1133,73 L1132,73 L1131,74 L1130,74 L1128,76 L1126,76 L1125,77 L1124,77 L1123,78 L1122,78 L1121,79 L1120,79 L1119,80 L1118,80 L1116,82 L1114,82 L1112,84 L1111,84 L1110,85 L1109,85 L1108,86 L1107,86 L1105,88 L1104,88 L1102,90 L1101,90 L1099,92 L1098,92 L1095,95 L1094,95 L1091,98 L1090,98 L1086,102 L1085,102 L1085,103 L1084,104 L1083,104 L1077,110 L1077,111 L1071,117 L1071,118 L1068,121 L1068,122 L1065,125 L1065,126 L1064,127 L1064,128 L1063,129 L1063,130 L1064,130 L1065,129 L1066,129 L1067,128 L1069,128 L1070,127 L1075,127 L1076,126 L1079,126 L1080,125 L1085,125 L1086,124 L1098,124 L1099,123 L1109,123 L1110,122 L1124,122 L1125,121 L1178,121 L1180,119 L1180,115 L1179,114 L1179,113 L1177,111 L1177,110 L1176,109 L1176,108 L1175,107 L1175,106 L1173,104 L1173,103 L1172,102 L1172,101 L1170,99 L1170,98 L1168,96 L1168,95 L1166,93 L1166,92 L1164,90 L1164,89 L1161,86 L1161,85 L1154,78 L1154,77 L1153,76 L1152,76 L1148,72 L1147,72 L1145,70 Z" fill="black" /><path d="M 1257,37 L1256,38 L1240,38 L1239,39 L1233,39 L1232,40 L1228,40 L1227,41 L1221,41 L1220,42 L1217,42 L1216,43 L1214,43 L1213,44 L1209,44 L1208,45 L1205,45 L1204,46 L1202,46 L1201,47 L1198,47 L1197,48 L1194,48 L1193,49 L1192,49 L1191,50 L1189,50 L1188,51 L1184,51 L1183,52 L1182,52 L1181,53 L1179,53 L1178,54 L1176,54 L1175,55 L1173,55 L1172,56 L1171,56 L1170,57 L1167,57 L1166,58 L1165,58 L1164,59 L1163,59 L1162,60 L1161,60 L1160,61 L1159,61 L1157,63 L1157,65 L1158,66 L1158,67 L1170,79 L1170,80 L1171,80 L1172,81 L1172,82 L1175,85 L1175,86 L1178,89 L1178,90 L1181,93 L1181,94 L1182,95 L1182,96 L1184,98 L1184,99 L1185,100 L1185,101 L1187,103 L1187,104 L1188,105 L1188,106 L1190,108 L1190,109 L1191,110 L1191,111 L1192,112 L1192,113 L1193,114 L1193,115 L1194,116 L1194,117 L1195,118 L1195,119 L1196,120 L1213,120 L1214,119 L1233,119 L1234,118 L1267,118 L1268,117 L1289,117 L1290,116 L1309,116 L1310,115 L1343,115 L1344,114 L1366,114 L1367,113 L1372,113 L1371,112 L1371,110 L1369,108 L1369,107 L1368,106 L1368,105 L1366,103 L1366,102 L1364,100 L1364,99 L1362,97 L1362,96 L1359,93 L1359,92 L1357,90 L1357,89 L1355,87 L1355,86 L1349,80 L1349,79 L1348,79 L1347,78 L1347,77 L1336,66 L1335,66 L1332,63 L1331,63 L1327,59 L1326,59 L1324,57 L1323,57 L1321,55 L1320,55 L1318,53 L1317,53 L1316,52 L1315,52 L1314,51 L1313,51 L1312,50 L1311,50 L1310,49 L1309,49 L1308,48 L1307,48 L1306,47 L1305,47 L1304,46 L1303,46 L1302,45 L1300,45 L1299,44 L1297,44 L1296,43 L1295,43 L1294,42 L1292,42 L1291,41 L1287,41 L1286,40 L1283,40 L1282,39 L1278,39 L1277,38 L1263,38 L1262,37 Z" fill="black" /><path d="M 1350,26 L1349,27 L1339,27 L1338,28 L1335,28 L1334,29 L1333,29 L1332,30 L1332,34 L1335,37 L1336,37 L1338,39 L1339,39 L1342,42 L1343,42 L1347,46 L1348,46 L1351,49 L1352,49 L1355,52 L1356,52 L1362,58 L1363,58 L1364,59 L1364,60 L1365,61 L1366,61 L1376,71 L1377,71 L1387,81 L1388,81 L1389,82 L1389,83 L1390,83 L1397,90 L1398,90 L1400,92 L1401,92 L1402,93 L1403,93 L1404,94 L1405,94 L1406,95 L1407,95 L1408,96 L1410,96 L1411,97 L1413,97 L1414,98 L1416,98 L1417,99 L1425,99 L1426,100 L1451,100 L1452,99 L1484,99 L1485,98 L1508,98 L1509,97 L1549,97 L1550,96 L1603,96 L1604,97 L1640,97 L1641,98 L1657,98 L1658,99 L1681,99 L1682,100 L1691,100 L1692,101 L1696,101 L1695,100 L1694,100 L1693,99 L1692,99 L1691,98 L1690,98 L1689,97 L1688,97 L1687,96 L1686,96 L1685,95 L1683,95 L1682,94 L1681,94 L1680,93 L1679,93 L1678,92 L1677,92 L1676,91 L1674,91 L1673,90 L1672,90 L1671,89 L1670,89 L1669,88 L1667,88 L1666,87 L1665,87 L1664,86 L1663,86 L1662,85 L1660,85 L1659,84 L1658,84 L1657,83 L1656,83 L1655,82 L1652,82 L1650,80 L1648,80 L1647,79 L1645,79 L1644,78 L1643,78 L1642,77 L1641,77 L1640,76 L1638,76 L1637,75 L1636,75 L1635,74 L1633,74 L1632,73 L1630,73 L1629,72 L1628,72 L1627,71 L1626,71 L1625,70 L1623,70 L1622,69 L1620,69 L1619,68 L1618,68 L1617,67 L1615,67 L1614,66 L1612,66 L1611,65 L1610,65 L1609,64 L1607,64 L1606,63 L1604,63 L1603,62 L1602,62 L1601,61 L1599,61 L1598,60 L1595,60 L1594,59 L1593,59 L1592,58 L1591,58 L1590,57 L1587,57 L1586,56 L1585,56 L1584,55 L1582,55 L1581,54 L1579,54 L1578,53 L1576,53 L1575,52 L1574,52 L1573,51 L1570,51 L1569,50 L1567,50 L1566,49 L1565,49 L1564,48 L1562,48 L1561,47 L1558,47 L1557,46 L1556,46 L1555,45 L1553,45 L1552,44 L1549,44 L1548,43 L1547,43 L1546,42 L1544,42 L1543,41 L1540,41 L1539,40 L1537,40 L1536,39 L1534,39 L1533,38 L1528,38 L1527,37 L1522,37 L1521,36 L1515,36 L1514,35 L1505,35 L1504,34 L1499,34 L1498,33 L1492,33 L1491,32 L1479,32 L1478,31 L1472,31 L1471,30 L1463,30 L1462,29 L1448,29 L1447,28 L1436,28 L1435,27 L1421,27 L1420,26 Z" fill="black" /><path d="M 1234,19 L1233,20 L1225,20 L1224,21 L1219,21 L1218,22 L1212,22 L1211,23 L1207,23 L1206,24 L1203,24 L1202,25 L1197,25 L1196,26 L1192,26 L1191,27 L1189,27 L1188,28 L1185,28 L1184,29 L1180,29 L1179,30 L1178,30 L1177,31 L1175,31 L1174,32 L1171,32 L1170,33 L1168,33 L1167,34 L1166,34 L1165,35 L1161,35 L1160,36 L1159,36 L1158,37 L1157,37 L1156,38 L1153,38 L1152,39 L1151,39 L1150,40 L1149,40 L1148,41 L1145,41 L1144,42 L1143,42 L1142,43 L1141,43 L1140,44 L1138,44 L1137,45 L1136,45 L1135,46 L1134,46 L1133,47 L1132,47 L1131,48 L1130,48 L1129,49 L1128,49 L1127,50 L1126,50 L1125,51 L1123,51 L1122,52 L1121,52 L1119,54 L1117,54 L1115,56 L1114,56 L1113,57 L1112,57 L1111,58 L1110,58 L1108,60 L1106,60 L1104,62 L1103,62 L1102,63 L1101,63 L1099,65 L1098,65 L1096,67 L1095,67 L1093,69 L1092,69 L1090,71 L1089,71 L1087,73 L1086,73 L1083,76 L1082,76 L1079,79 L1078,79 L1075,82 L1074,82 L1071,85 L1070,85 L1064,91 L1063,91 L1053,101 L1052,101 L1039,114 L1038,114 L1032,120 L1031,120 L1027,124 L1026,124 L1021,129 L1020,129 L1018,131 L1018,138 L1019,138 L1020,137 L1021,137 L1024,134 L1025,134 L1028,131 L1029,131 L1033,127 L1034,127 L1040,121 L1041,121 L1047,115 L1048,115 L1055,108 L1056,108 L1065,99 L1066,99 L1072,93 L1073,93 L1080,86 L1081,86 L1084,83 L1085,83 L1089,79 L1090,79 L1093,76 L1094,76 L1096,74 L1097,74 L1100,71 L1101,71 L1104,68 L1105,68 L1106,67 L1107,67 L1109,65 L1110,65 L1112,63 L1113,63 L1115,61 L1116,61 L1117,60 L1118,60 L1120,58 L1122,58 L1124,56 L1125,56 L1126,55 L1127,55 L1128,54 L1129,54 L1131,52 L1133,52 L1135,50 L1136,50 L1137,49 L1139,49 L1140,48 L1141,48 L1142,47 L1143,47 L1144,46 L1146,46 L1147,45 L1148,45 L1149,44 L1150,44 L1151,43 L1153,43 L1154,42 L1155,42 L1156,41 L1157,41 L1158,40 L1160,40 L1161,39 L1163,39 L1164,38 L1165,38 L1166,37 L1168,37 L1169,36 L1172,36 L1173,35 L1174,35 L1175,34 L1177,34 L1178,33 L1181,33 L1182,32 L1184,32 L1185,31 L1187,31 L1188,30 L1191,30 L1192,29 L1195,29 L1196,28 L1198,28 L1199,27 L1203,27 L1204,26 L1207,26 L1208,25 L1210,25 L1211,24 L1216,24 L1217,23 L1221,23 L1222,22 L1226,22 L1227,21 L1233,21 L1234,20 L1237,20 L1236,20 L1235,19 Z" fill="black" /></svg>